<svg width="84" height="23" viewBox="0 0 84 23" fill="none" xmlns="http://www.w3.org/2000/svg">
<path d="M20.93 0H0V4.98H6.89V22.34H14.04V4.98H20.93V0Z" fill="white"/>
<path d="M83.8099 0H76.6699L73.2799 6.71L69.8999 0H62.8799L69.7699 13.66V22.34H76.9199V13.66L83.8099 0Z" fill="white"/>
<path d="M41.8899 4.98V0H23.45V22.34H41.8899V17.36H30.59V13.66H41.8899V8.68H30.59V4.98H41.8899Z" fill="white"/>
<path d="M63.4001 17.8C62.8124 16.0992 61.8719 14.5418 60.6402 13.23C61.378 12.5335 61.9654 11.6933 62.3662 10.7612C62.7669 9.82901 62.9724 8.82464 62.9702 7.81V7.46997C62.9702 5.4888 62.1831 3.58876 60.7822 2.18787C59.3813 0.786969 57.4813 0 55.5002 0H44.4102V22.34H51.5502V15.28H52.4801C54.6501 15.28 56.3601 17.7399 57.0901 19.6299L58.0901 22.34H65.2402C64.8302 21.29 64.1701 19.66 63.4001 17.8ZM56.7001 7.79999C56.7001 8.46038 56.4378 9.0937 55.9709 9.56067C55.5039 10.0276 54.8705 10.29 54.2102 10.29H51.5502V4.96997H54.2102C54.5422 4.9633 54.8722 5.0231 55.1807 5.14587C55.4893 5.26865 55.7702 5.45193 56.0068 5.68488C56.2435 5.91782 56.4312 6.19575 56.5589 6.50232C56.6865 6.80889 56.7516 7.13789 56.7502 7.46997L56.7001 7.79999Z" fill="white"/>
</svg>
